<mxfile host="app.diagrams.net" modified="2023-08-29T11:26:44.933Z" agent="Mozilla/5.0 (Windows NT 10.0; Win64; x64) AppleWebKit/537.36 (KHTML, like Gecko) Chrome/116.0.0.0 Safari/537.36" etag="tF23BI3DOtBgqU-h4mU2" version="21.6.9" type="device">
  <diagram name="Página-1" id="twxM7zNZTlisd-zMpkU_">
    <mxGraphModel dx="1050" dy="566" grid="1" gridSize="10" guides="1" tooltips="1" connect="1" arrows="1" fold="1" page="1" pageScale="1" pageWidth="827" pageHeight="1169" math="0" shadow="0">
      <root>
        <mxCell id="0" />
        <mxCell id="1" parent="0" />
        <mxCell id="05cRrGpQgxIjyi4Egf4v-9" value="Jogador" style="swimlane;fontStyle=1;align=center;verticalAlign=top;childLayout=stackLayout;horizontal=1;startSize=26;horizontalStack=0;resizeParent=1;resizeParentMax=0;resizeLast=0;collapsible=1;marginBottom=0;whiteSpace=wrap;html=1;" parent="1" vertex="1">
          <mxGeometry x="239" y="200" width="160" height="270" as="geometry" />
        </mxCell>
        <mxCell id="05cRrGpQgxIjyi4Egf4v-10" value="+ Time : String&lt;br&gt;+ Seleção : String&lt;br&gt;+ Gols : Int&lt;br&gt;+ Assistencias&amp;nbsp; : Int&lt;br&gt;+ Partidas : Int&lt;br&gt;+ Chuteira : String&lt;br&gt;+ Posição : String&lt;br&gt;+ Altura : Int" style="text;strokeColor=none;fillColor=none;align=left;verticalAlign=top;spacingLeft=4;spacingRight=4;overflow=hidden;rotatable=0;points=[[0,0.5],[1,0.5]];portConstraint=eastwest;whiteSpace=wrap;html=1;" parent="05cRrGpQgxIjyi4Egf4v-9" vertex="1">
          <mxGeometry y="26" width="160" height="134" as="geometry" />
        </mxCell>
        <mxCell id="05cRrGpQgxIjyi4Egf4v-11" value="" style="line;strokeWidth=1;fillColor=none;align=left;verticalAlign=middle;spacingTop=-1;spacingLeft=3;spacingRight=3;rotatable=0;labelPosition=right;points=[];portConstraint=eastwest;strokeColor=inherit;" parent="05cRrGpQgxIjyi4Egf4v-9" vertex="1">
          <mxGeometry y="160" width="160" height="8" as="geometry" />
        </mxCell>
        <mxCell id="05cRrGpQgxIjyi4Egf4v-12" value="+ Correr () : Void&lt;br&gt;+ Chutar () : Voida&lt;br&gt;+ Tocar () : Void&lt;br&gt;+ Pular () : Void&lt;br&gt;" style="text;strokeColor=none;fillColor=none;align=left;verticalAlign=top;spacingLeft=4;spacingRight=4;overflow=hidden;rotatable=0;points=[[0,0.5],[1,0.5]];portConstraint=eastwest;whiteSpace=wrap;html=1;" parent="05cRrGpQgxIjyi4Egf4v-9" vertex="1">
          <mxGeometry y="168" width="160" height="102" as="geometry" />
        </mxCell>
        <mxCell id="FN5h5sfimuIEIlgGbeA3-2" value="Leão" style="swimlane;fontStyle=1;align=center;verticalAlign=top;childLayout=stackLayout;horizontal=1;startSize=26;horizontalStack=0;resizeParent=1;resizeParentMax=0;resizeLast=0;collapsible=1;marginBottom=0;whiteSpace=wrap;html=1;" vertex="1" parent="1">
          <mxGeometry x="429" y="200" width="160" height="240" as="geometry" />
        </mxCell>
        <mxCell id="FN5h5sfimuIEIlgGbeA3-3" value="+ Velocidade : string&lt;br&gt;+ Mordida : string&lt;br&gt;+Altura : string&lt;br&gt;+ Peso : string&lt;br&gt;+ Cor : string&lt;br&gt;+ Rugido : string" style="text;strokeColor=none;fillColor=none;align=left;verticalAlign=top;spacingLeft=4;spacingRight=4;overflow=hidden;rotatable=0;points=[[0,0.5],[1,0.5]];portConstraint=eastwest;whiteSpace=wrap;html=1;" vertex="1" parent="FN5h5sfimuIEIlgGbeA3-2">
          <mxGeometry y="26" width="160" height="114" as="geometry" />
        </mxCell>
        <mxCell id="FN5h5sfimuIEIlgGbeA3-4" value="" style="line;strokeWidth=1;fillColor=none;align=left;verticalAlign=middle;spacingTop=-1;spacingLeft=3;spacingRight=3;rotatable=0;labelPosition=right;points=[];portConstraint=eastwest;strokeColor=inherit;" vertex="1" parent="FN5h5sfimuIEIlgGbeA3-2">
          <mxGeometry y="140" width="160" height="8" as="geometry" />
        </mxCell>
        <mxCell id="FN5h5sfimuIEIlgGbeA3-5" value="+ Correr () : void&lt;br&gt;+ Pular() : void&lt;br&gt;+ Caçar() : void&lt;br&gt;+ Morder() : void" style="text;strokeColor=none;fillColor=none;align=left;verticalAlign=top;spacingLeft=4;spacingRight=4;overflow=hidden;rotatable=0;points=[[0,0.5],[1,0.5]];portConstraint=eastwest;whiteSpace=wrap;html=1;" vertex="1" parent="FN5h5sfimuIEIlgGbeA3-2">
          <mxGeometry y="148" width="160" height="92" as="geometry" />
        </mxCell>
      </root>
    </mxGraphModel>
  </diagram>
</mxfile>
